<svg class="svg-icon" 
style="width: 1em; height: 0.5em;vertical-align: middle;fill: currentColor;overflow: hidden;" 
viewBox="0 0 1024 1030" 
version="1.1" 
xmlns="http://www.w3.org/2000/svg">
    <path d="M404.394667 708.245333a32.106667 32.106667 0 0 1 45.248 0l90.517333 90.517334a32.106667 32.106667 0 0 1 0 45.248 32.106667 32.106667 0 0 1-45.248 0l-90.517333-90.517334a32.064 32.064 0 0 1 0-45.248z" fill="#A8A8B4" />
    <path d="M494.912 798.741333l90.517333-90.517333a32.106667 32.106667 0 0 1 45.248 0 32.106667 32.106667 0 0 1 0 45.248l-90.517333 90.517333a32.106667 32.106667 0 0 1-45.248 0 32.064 32.064 0 0 1 0-45.248z" fill="#A8A8B4" />
    <path d="M515.562667 789.333333c-17.6 0-32-14.4-32-32v-170.666666c0-17.6 14.4-32 32-32s32 14.4 32 32v170.666666c0 17.6-14.4 32-32 32z" fill="#A8A8B4" />
    <path d="M515.562667 298.666667c-17.6 0-32-14.4-32-32v-85.333334c0-17.6 14.4-32 32-32s32 14.4 32 32v85.333334c0 17.6-14.4 32-32 32z" fill="#F9A825" />
    <path d="M213.333333 597.333333c0 17.6-14.4 32-32 32h-85.333333c-17.6 0-32-14.4-32-32s14.4-32 32-32h85.333333c17.6 0 32 14.4 32 32zM960 597.333333c0 17.6-14.4 32-32 32h-85.333333c-17.6 0-32-14.4-32-32s14.4-32 32-32h85.333333c17.6 0 32 14.4 32 32z" fill="#F9A825" />
    <path d="M300.821333 386.154667a32.106667 32.106667 0 0 1-45.248 0l-60.330666-60.330667a32.106667 32.106667 0 0 1 0-45.248 32.106667 32.106667 0 0 1 45.248 0l60.330666 60.330667a32.106667 32.106667 0 0 1 0 45.248zM723.178667 386.154667a32.106667 32.106667 0 0 1 0-45.248l60.330666-60.330667a32.106667 32.106667 0 0 1 45.248 0 32.106667 32.106667 0 0 1 0 45.248l-60.330666 60.330667a32.106667 32.106667 0 0 1-45.248 0zM372.736 725.333333a191.04 191.04 0 0 1-49.173333-128c0-106.048 85.952-192 192-192s192 85.952 192 192a191.146667 191.146667 0 0 1-49.173334 128h78.656a254.570667 254.570667 0 0 0 34.517334-128c0-141.376-114.624-256-256-256s-256 114.624-256 256c0 46.677333 12.693333 90.304 34.517333 128h78.656z" fill="#F9A825" />
</svg>