<svg class="svg-icon" 
style="width: 1em; height: 1em;vertical-align: middle;fill: gray;overflow: hidden;" 
viewBox="0 0 1024 1024" 
version="1.1" 
xmlns="http://www.w3.org/2000/svg">
<path d="M512 0a512 512 0 1 1 0 1024A512 512 0 0 1 512 0z m0 861.888a68.288 68.288 0 1 0 0-136.576 68.288 68.288 0 0 0 0 136.576z m186.56-379.648c29.952-43.904 41.088-82.304 40.96-136.192-0.128-84.864-80.256-174.976-200.96-174.976-128.64 0-253.696 63.744-253.696 227.2l113.28 0.384c0-55.808 36.032-114.944 113.024-114.944 46.08 0 112.64 18.624 112.64 86.72 0 62.656-20.48 75.456-81.92 120.32-59.328 40.32-89.6 92.992-87.424 158.08v33.664h115.584c0-102.912 72.768-115.392 128.512-200.32z"  /></svg>